<svg width="40" height="40" viewBox="0 0 40 40" fill="none" xmlns="http://www.w3.org/2000/svg">
<circle cx="20" cy="20" r="20" fill="black"/>
<path d="M22.5 9H14C13.4696 9 12.9609 9.21071 12.5858 9.58579C12.2107 9.96086 12 10.4696 12 11V27C12 27.5304 12.2107 28.0391 12.5858 28.4142C12.9609 28.7893 13.4696 29 14 29H26C26.5304 29 27.0391 28.7893 27.4142 28.4142C27.7893 28.0391 28 27.5304 28 27V14.5L22.5 9Z" stroke="white" stroke-width="2" stroke-linecap="round" stroke-linejoin="round"/>
<path d="M22 9V15H28" stroke="white" stroke-width="2" stroke-linecap="round" stroke-linejoin="round"/>
<path d="M18 18L23 21L18 24V18Z" stroke="white" stroke-width="2" stroke-linecap="round" stroke-linejoin="round"/>
</svg>
